<svg width="164" height="68" viewBox="0 0 164 68" fill="none" xmlns="http://www.w3.org/2000/svg">
<path d="M2.90245 45.9885C-2.52133 41.4275 0.0931101 32.6002 7.1279 31.7218C10.3651 31.3176 13.5304 32.8864 15.1665 35.7061L27.557 57.0596C27.6606 57.2381 27.7496 57.4248 27.8229 57.6178C29.2183 61.2896 24.8114 64.4125 21.8038 61.8832L2.90245 45.9885Z" fill="url(#paint0_linear_507_481)"/>
<path d="M21.1737 18.5542C21.424 9.59568 28.2874 2.07924 37.2466 1.62105C44.8936 1.22996 51.8853 1.33448 59.9226 2.17136C68.7024 3.08556 74.9355 10.9014 74.6891 19.7165C74.5943 23.1111 74.5033 26.367 74.4089 29.7428C74.1538 38.8732 67.0355 46.4496 57.9029 46.8875C50.3273 47.2508 43.462 47.2396 35.6035 46.4839C26.8386 45.6412 20.635 37.8296 20.8807 29.0364L21.1737 18.5542Z" fill="url(#paint1_linear_507_481)"/>
<path d="M27.4249 26.5236C27.6043 20.1019 32.6098 14.7812 39.0356 14.5349C45.0562 14.3041 50.5072 14.3944 56.8471 14.9774C63.1683 15.5587 67.7494 21.1099 67.5723 27.4491C67.5494 28.2686 67.5266 29.0819 67.5038 29.8995C67.3216 36.4197 62.169 41.7726 55.6439 42.0038C49.6451 42.2164 44.2735 42.1896 38.0483 41.6561C31.7362 41.1151 27.1722 35.5655 27.349 29.2389L27.4249 26.5236Z" fill="#212224"/>
<path d="M45.5053 29.3238C45.4344 28.84 45.2331 28.3808 44.9033 28.0195C42.0676 24.9138 39.1793 24.1446 35.1275 27.0917C34.5629 27.5024 34.2026 28.1298 34.0736 28.8154C33.6173 31.2418 36.1783 33.0954 38.6114 32.6629C39.7508 32.4604 40.878 32.4228 42.0953 32.5437C44.004 32.7333 45.7833 31.2197 45.5053 29.3238Z" fill="#F5C23F"/>
<path d="M48.0842 29.7923C48.1552 29.3085 48.3565 28.8493 48.6863 28.4881C51.522 25.3823 54.4103 24.6131 58.4621 27.5603C59.0266 27.9709 59.387 28.5983 59.5159 29.284C59.9723 31.7103 57.4112 33.5639 54.9782 33.1314C53.8388 32.9289 52.7116 32.8913 51.4942 33.0122C49.5856 33.2018 47.8062 31.6882 48.0842 29.7923Z" fill="#F5C23F"/>
<path d="M26.9759 59.0227C26.4808 55.4104 29.0106 52.0811 32.6266 51.5864L61.4342 47.6457C65.0501 47.151 68.3827 49.6784 68.8779 53.2907L69.3261 56.5611C69.8213 60.1734 67.2914 63.5028 63.6755 63.9974L34.8678 67.9382C31.2519 68.4328 27.9193 65.9054 27.4241 62.2931L26.9759 59.0227Z" fill="url(#paint2_linear_507_481)"/>
<path d="M5.19745 17.5214C5.19745 16.2453 6.23297 15.2108 7.51035 15.2108C8.78773 15.2108 9.82325 16.2453 9.82325 17.5214V36.6664C9.82325 37.9425 8.78773 38.977 7.51035 38.977C6.23297 38.977 5.19745 37.9425 5.19745 36.6664V17.5214Z" fill="#3753B8"/>
<path d="M10.484 6.6285C9.82311 4.64798 15.7709 16.201 12.4665 19.832C9.16214 23.4629 5.3516 22.5049 2.55407 19.832C-0.216726 17.1846 11.1449 8.60903 10.484 6.6285Z" fill="url(#paint3_linear_507_481)"/>
<path d="M86.1172 42.9381L88.8768 32.1165H92.6991L95.4428 42.9381H93.2542L92.6515 40.7516H88.861L88.29 42.9381H86.1172ZM89.2099 38.9929H92.3343L91.1131 33.891H90.447L89.2099 38.9929Z" fill="black"/>
<path d="M96.6372 42.9381V32.1165H100.872C101.739 32.1165 102.463 32.2274 103.045 32.4492C103.637 32.671 104.075 33.0407 104.361 33.5583C104.657 34.0759 104.805 34.7783 104.805 35.6656C104.805 36.4472 104.662 37.1074 104.377 37.6461C104.102 38.1742 103.679 38.5651 103.108 38.8186L104.805 42.9381H102.505L101.078 39.3097H98.8258V42.9381H96.6372ZM98.8258 37.5193H100.919C101.321 37.5193 101.644 37.4454 101.887 37.2975C102.13 37.1391 102.304 36.9226 102.41 36.6479C102.516 36.3627 102.569 36.0406 102.569 35.6814C102.569 35.0899 102.431 34.6463 102.156 34.3505C101.881 34.0548 101.453 33.9069 100.872 33.9069H98.8258V37.5193Z" fill="black"/>
<path d="M108.504 42.9381V33.9703H105.585V32.1165H113.515V33.9703H110.692V42.9381H108.504Z" fill="black"/>
<path d="M114.712 42.9381V32.1165H116.9V42.9381H114.712Z" fill="black"/>
<path d="M122.414 43.1123C122.012 43.1123 121.574 43.0859 121.098 43.0331C120.622 42.9909 120.157 42.9381 119.702 42.8747C119.258 42.8007 118.877 42.7374 118.56 42.6845L118.703 40.9575C119.031 40.9998 119.411 41.0473 119.845 41.1001C120.278 41.1424 120.707 41.1794 121.13 41.211C121.563 41.2427 121.938 41.2586 122.256 41.2586C122.858 41.2586 123.297 41.1424 123.572 40.91C123.847 40.6671 123.984 40.2921 123.984 39.7851C123.984 39.5104 123.926 39.2939 123.81 39.1355C123.704 38.9665 123.508 38.8344 123.223 38.7393C122.938 38.6337 122.541 38.5334 122.034 38.4383C121.188 38.2799 120.5 38.0845 119.972 37.8521C119.454 37.6197 119.073 37.2922 118.83 36.8697C118.597 36.4472 118.481 35.8821 118.481 35.1744C118.481 34.3505 118.634 33.7062 118.941 33.2414C119.247 32.7661 119.686 32.4281 120.257 32.2274C120.828 32.0267 121.5 31.9264 122.271 31.9264C122.62 31.9264 123.017 31.9475 123.461 31.9897C123.916 32.0214 124.36 32.0637 124.793 32.1165C125.237 32.1693 125.613 32.2274 125.919 32.2908L125.824 34.0336C125.507 33.9914 125.137 33.9544 124.714 33.9227C124.301 33.8805 123.889 33.8435 123.477 33.8118C123.075 33.7801 122.731 33.7643 122.446 33.7643C121.843 33.7643 121.399 33.8593 121.114 34.0495C120.828 34.2396 120.685 34.5459 120.685 34.9684C120.685 35.2853 120.749 35.5283 120.876 35.6973C121.003 35.8663 121.214 36.0036 121.51 36.1092C121.817 36.2148 122.234 36.3258 122.763 36.4419C123.387 36.5793 123.916 36.7271 124.349 36.8856C124.793 37.044 125.147 37.2342 125.412 37.456C125.687 37.6778 125.887 37.963 126.014 38.3116C126.141 38.6601 126.205 39.0985 126.205 39.6266C126.205 40.4716 126.051 41.1529 125.745 41.6705C125.449 42.1775 125.015 42.5472 124.444 42.7796C123.884 43.0014 123.207 43.1123 122.414 43.1123Z" fill="black"/>
<path d="M129.815 42.9381V33.9703H126.897V32.1165H134.827V33.9703H132.004V42.9381H129.815Z" fill="black"/>
<path d="M135.659 35.824L136.214 31.958H138.418L137.324 35.824H135.659Z" fill="black"/>
<path d="M143.339 43.1123C142.937 43.1123 142.498 43.0859 142.022 43.0331C141.546 42.9909 141.081 42.9381 140.627 42.8747C140.183 42.8007 139.802 42.7374 139.485 42.6845L139.627 40.9575C139.955 40.9998 140.336 41.0473 140.769 41.1001C141.203 41.1424 141.631 41.1794 142.054 41.211C142.488 41.2427 142.863 41.2586 143.18 41.2586C143.783 41.2586 144.222 41.1424 144.496 40.91C144.771 40.6671 144.909 40.2921 144.909 39.7851C144.909 39.5104 144.851 39.2939 144.734 39.1355C144.629 38.9665 144.433 38.8344 144.148 38.7393C143.862 38.6337 143.466 38.5334 142.958 38.4383C142.112 38.2799 141.425 38.0845 140.896 37.8521C140.378 37.6197 139.998 37.2922 139.754 36.8697C139.522 36.4472 139.405 35.8821 139.405 35.1744C139.405 34.3505 139.559 33.7062 139.865 33.2414C140.172 32.7661 140.611 32.4281 141.182 32.2274C141.753 32.0267 142.424 31.9264 143.196 31.9264C143.545 31.9264 143.941 31.9475 144.385 31.9897C144.84 32.0214 145.284 32.0637 145.718 32.1165C146.162 32.1693 146.537 32.2274 146.844 32.2908L146.749 34.0336C146.431 33.9914 146.061 33.9544 145.638 33.9227C145.226 33.8805 144.814 33.8435 144.401 33.8118C143.999 33.7801 143.656 33.7643 143.37 33.7643C142.768 33.7643 142.324 33.8593 142.038 34.0495C141.753 34.2396 141.61 34.5459 141.61 34.9684C141.61 35.2853 141.673 35.5283 141.8 35.6973C141.927 35.8663 142.139 36.0036 142.435 36.1092C142.741 36.2148 143.159 36.3258 143.688 36.4419C144.311 36.5793 144.84 36.7271 145.274 36.8856C145.718 37.044 146.072 37.2342 146.336 37.456C146.611 37.6778 146.812 37.963 146.939 38.3116C147.066 38.6601 147.129 39.0985 147.129 39.6266C147.129 40.4716 146.976 41.1529 146.669 41.6705C146.373 42.1775 145.94 42.5472 145.369 42.7796C144.808 43.0014 144.132 43.1123 143.339 43.1123Z" fill="black"/>
<path d="M151.291 42.9381L154.051 32.1165H157.873L160.617 42.9381H158.428L157.826 40.7516H154.035L153.464 42.9381H151.291ZM154.384 38.9929H157.508L156.287 33.891H155.621L154.384 38.9929Z" fill="#3753B8"/>
<path d="M161.811 42.9381V32.1165H164V42.9381H161.811Z" fill="#3753B8"/>
<path d="M37.5766 1.89719C37.6006 1.09134 38.2274 0.430259 39.0319 0.366873C46.8207 -0.246799 51.7436 -0.119052 59.3433 0.966225C60.1383 1.07975 60.7195 1.77454 60.6956 2.57644C60.67 3.43437 59.9628 4.11652 59.1036 4.11402C50.5482 4.08912 45.6797 3.93818 39.0628 3.52696C38.2084 3.47386 37.5511 2.75197 37.5766 1.89719Z" fill="url(#paint4_linear_507_481)"/>
<defs>
<linearGradient id="paint0_linear_507_481" x1="4.07953e-06" y1="5.56167" x2="-2.35922" y2="54.4025" gradientUnits="userSpaceOnUse">
<stop stop-color="#D9D9D9"/>
<stop offset="1" stop-color="#737373"/>
</linearGradient>
<linearGradient id="paint1_linear_507_481" x1="81.1047" y1="34.2701" x2="80.6773" y2="73.117" gradientUnits="userSpaceOnUse">
<stop stop-color="#D9D9D9"/>
<stop offset="1" stop-color="#737373"/>
</linearGradient>
<linearGradient id="paint2_linear_507_481" x1="64.0625" y1="-8.09524" x2="86.1523" y2="88.8446" gradientUnits="userSpaceOnUse">
<stop stop-color="#A5A5A5"/>
<stop offset="1" stop-color="#E8E5E5"/>
</linearGradient>
<linearGradient id="paint3_linear_507_481" x1="82.6562" y1="30.7938" x2="82.6864" y2="68.0003" gradientUnits="userSpaceOnUse">
<stop stop-color="#F5C23F"/>
<stop offset="1" stop-color="#D3A734"/>
</linearGradient>
<linearGradient id="paint4_linear_507_481" x1="49.4718" y1="2.00728" x2="49.142" y2="7.61879" gradientUnits="userSpaceOnUse">
<stop stop-color="#3753B8"/>
<stop offset="1" stop-color="#192552"/>
</linearGradient>
</defs>
</svg>
