<svg width="267" height="124" viewBox="0 0 267 124" fill="none" xmlns="http://www.w3.org/2000/svg">
<path d="M21.5271 70.6207C13.3195 63.7119 17.2758 50.3407 27.9213 49.0101V49.0101C32.8199 48.3978 37.6098 50.7743 40.0857 55.0453L58.8357 87.3906C58.9925 87.6611 59.127 87.9439 59.238 88.2362V88.2362C61.3496 93.7981 54.6809 98.5285 50.1295 94.6973L21.5271 70.6207Z" fill="url(#paint0_linear_265_44)"/>
<path d="M49.1761 29.0645C49.5549 15.4945 59.941 4.10899 73.4985 3.41494C85.0703 2.82254 95.6505 2.98086 107.813 4.24853C121.099 5.63331 130.531 17.4723 130.158 30.8251C130.015 35.967 129.877 40.8989 129.734 46.0125C129.348 59.8428 118.577 71.3192 104.757 71.9825C93.2929 72.5327 82.904 72.5157 71.012 71.3712C57.7485 70.0946 48.3609 58.262 48.7328 44.9424L49.1761 29.0645Z" fill="url(#paint1_linear_265_44)"/>
<path d="M58.6357 41.1361C58.9072 31.4089 66.4818 23.3493 76.2057 22.9762C85.3163 22.6267 93.5651 22.7635 103.159 23.6465C112.725 24.527 119.657 32.9357 119.389 42.5381C119.354 43.7794 119.32 45.0114 119.285 46.2499C119.009 56.1263 111.212 64.2346 101.338 64.5849C92.2605 64.9069 84.1319 64.8662 74.7117 64.0581C65.1598 63.2387 58.2533 54.8324 58.5209 45.2491L58.6357 41.1361Z" fill="#212224"/>
<path d="M85.996 45.3777C85.8886 44.6449 85.584 43.9493 85.0849 43.4021C80.7938 38.6976 76.4231 37.5325 70.2917 41.9967C69.4374 42.6187 68.8921 43.5691 68.697 44.6077V44.6077C68.0064 48.2831 71.8819 51.0908 75.5638 50.4357C77.2879 50.1289 78.9937 50.0719 80.8358 50.2551C83.7241 50.5423 86.4167 48.2495 85.996 45.3777V45.3777Z" fill="#F5C23F"/>
<path d="M89.8986 46.0874C90.0059 45.3546 90.3105 44.659 90.8096 44.1118C95.1007 39.4074 99.4714 38.2422 105.603 42.7065C106.457 43.3285 107.002 44.2788 107.198 45.3174V45.3174C107.888 48.9928 104.013 51.8005 100.331 51.1454C98.6066 50.8386 96.9009 50.7816 95.0587 50.9648C92.1705 51.252 89.4778 48.9592 89.8986 46.0874V46.0874Z" fill="#F5C23F"/>
<rect x="56.5996" y="80.4568" width="64" height="25" rx="10" transform="rotate(-7.79711 56.5996 80.4568)" fill="url(#paint2_linear_265_44)"/>
<rect x="25" y="24" width="7" height="36" rx="3.5" fill="#3753B8"/>
<path d="M32.9999 11C31.9998 7.99999 41.0002 25.5 35.9999 31C30.9996 36.5 25.2333 35.0489 20.9999 31C16.807 26.9898 34 14 32.9999 11Z" fill="url(#paint3_linear_265_44)"/>
<path d="M147.581 66L151.757 49.608H157.541L161.693 66H158.381L157.469 62.688H151.733L150.869 66H147.581ZM152.261 60.024H156.989L155.141 52.296H154.133L152.261 60.024ZM163.5 66V49.608H169.908C171.22 49.608 172.316 49.776 173.196 50.112C174.092 50.448 174.756 51.008 175.188 51.792C175.636 52.576 175.86 53.64 175.86 54.984C175.86 56.168 175.644 57.168 175.212 57.984C174.796 58.784 174.156 59.376 173.292 59.76L175.86 66H172.38L170.22 60.504H166.812V66H163.5ZM166.812 57.792H169.98C170.588 57.792 171.076 57.68 171.444 57.456C171.812 57.216 172.076 56.888 172.236 56.472C172.396 56.04 172.476 55.552 172.476 55.008C172.476 54.112 172.268 53.44 171.852 52.992C171.436 52.544 170.788 52.32 169.908 52.32H166.812V57.792ZM181.34 66V52.416H176.924V49.608H188.924V52.416H184.652V66H181.34ZM190.735 66V49.608H194.047V66H190.735ZM202.39 66.264C201.782 66.264 201.118 66.224 200.398 66.144C199.678 66.08 198.974 66 198.286 65.904C197.614 65.792 197.038 65.696 196.558 65.616L196.774 63C197.27 63.064 197.846 63.136 198.502 63.216C199.158 63.28 199.806 63.336 200.446 63.384C201.102 63.432 201.67 63.456 202.15 63.456C202.758 63.456 203.254 63.376 203.638 63.216C204.022 63.056 204.302 62.816 204.478 62.496C204.67 62.16 204.766 61.736 204.766 61.224C204.766 60.808 204.678 60.48 204.502 60.24C204.342 59.984 204.046 59.784 203.614 59.64C203.182 59.48 202.582 59.328 201.814 59.184C200.854 59.008 200.03 58.8 199.342 58.56C198.67 58.32 198.118 58.024 197.686 57.672C197.254 57.304 196.934 56.84 196.726 56.28C196.534 55.72 196.438 55.04 196.438 54.24C196.438 52.992 196.67 52.016 197.134 51.312C197.598 50.592 198.262 50.08 199.126 49.776C199.99 49.472 201.006 49.32 202.174 49.32C202.702 49.32 203.302 49.352 203.974 49.416C204.662 49.464 205.334 49.528 205.99 49.608C206.662 49.688 207.23 49.776 207.694 49.872L207.55 52.512C207.07 52.448 206.51 52.392 205.87 52.344C205.246 52.28 204.622 52.224 203.998 52.176C203.39 52.128 202.87 52.104 202.438 52.104C201.846 52.104 201.35 52.168 200.95 52.296C200.55 52.424 200.254 52.624 200.062 52.896C199.87 53.168 199.774 53.512 199.774 53.928C199.774 54.408 199.87 54.776 200.062 55.032C200.254 55.288 200.574 55.496 201.022 55.656C201.486 55.816 202.118 55.984 202.918 56.16C203.862 56.368 204.662 56.592 205.318 56.832C205.99 57.072 206.526 57.36 206.926 57.696C207.342 58.032 207.646 58.464 207.838 58.992C208.03 59.52 208.126 60.184 208.126 60.984C208.126 62.264 207.894 63.296 207.43 64.08C206.982 64.848 206.326 65.408 205.462 65.76C204.614 66.096 203.59 66.264 202.39 66.264ZM213.45 66V52.416H209.034V49.608H221.034V52.416H216.762V66H213.45ZM222.292 55.224L223.132 49.368H226.468L224.812 55.224H222.292ZM233.914 66.264C233.306 66.264 232.642 66.224 231.922 66.144C231.202 66.08 230.498 66 229.81 65.904C229.138 65.792 228.562 65.696 228.082 65.616L228.298 63C228.794 63.064 229.37 63.136 230.026 63.216C230.682 63.28 231.33 63.336 231.97 63.384C232.626 63.432 233.194 63.456 233.674 63.456C234.282 63.456 234.778 63.376 235.162 63.216C235.546 63.056 235.826 62.816 236.002 62.496C236.194 62.16 236.29 61.736 236.29 61.224C236.29 60.808 236.202 60.48 236.026 60.24C235.866 59.984 235.57 59.784 235.138 59.64C234.706 59.48 234.106 59.328 233.338 59.184C232.378 59.008 231.554 58.8 230.866 58.56C230.194 58.32 229.642 58.024 229.21 57.672C228.778 57.304 228.458 56.84 228.25 56.28C228.058 55.72 227.962 55.04 227.962 54.24C227.962 52.992 228.194 52.016 228.658 51.312C229.122 50.592 229.786 50.08 230.65 49.776C231.514 49.472 232.53 49.32 233.698 49.32C234.226 49.32 234.826 49.352 235.498 49.416C236.186 49.464 236.858 49.528 237.514 49.608C238.186 49.688 238.754 49.776 239.218 49.872L239.074 52.512C238.594 52.448 238.034 52.392 237.394 52.344C236.77 52.28 236.146 52.224 235.522 52.176C234.914 52.128 234.394 52.104 233.962 52.104C233.37 52.104 232.874 52.168 232.474 52.296C232.074 52.424 231.778 52.624 231.586 52.896C231.394 53.168 231.298 53.512 231.298 53.928C231.298 54.408 231.394 54.776 231.586 55.032C231.778 55.288 232.098 55.496 232.546 55.656C233.01 55.816 233.642 55.984 234.442 56.16C235.386 56.368 236.186 56.592 236.842 56.832C237.514 57.072 238.05 57.36 238.45 57.696C238.866 58.032 239.17 58.464 239.362 58.992C239.554 59.52 239.65 60.184 239.65 60.984C239.65 62.264 239.418 63.296 238.954 64.08C238.506 64.848 237.85 65.408 236.986 65.76C236.138 66.096 235.114 66.264 233.914 66.264Z" fill="black"/>
<path d="M245.948 66L250.124 49.608H255.908L260.06 66H256.748L255.836 62.688H250.1L249.236 66H245.948ZM250.628 60.024H255.356L253.508 52.296H252.5L250.628 60.024ZM261.867 66V49.608H265.179V66H261.867Z" fill="#3753B8"/>
<path d="M73.9978 3.83323C74.0342 2.61257 74.9827 1.61119 76.2001 1.51517C87.9866 0.585613 95.4361 0.779119 106.936 2.42305C108.139 2.59501 109.019 3.64744 108.983 4.86213V4.86213C108.944 6.16168 107.874 7.19496 106.574 7.19117C93.6271 7.15346 86.2599 6.92483 76.2468 6.30192C74.9539 6.22149 73.9592 5.12801 73.9978 3.83323V3.83323Z" fill="url(#paint4_linear_265_44)"/>
<defs>
<linearGradient id="paint0_linear_265_44" x1="3.38579" y1="58.3408" x2="17.2397" y2="113.74" gradientUnits="userSpaceOnUse">
<stop stop-color="#D9D9D9"/>
<stop offset="1" stop-color="#737373"/>
</linearGradient>
<linearGradient id="paint1_linear_265_44" x1="89" y1="38" x2="87" y2="77.5" gradientUnits="userSpaceOnUse">
<stop stop-color="#D9D9D9"/>
<stop offset="1" stop-color="#737373"/>
</linearGradient>
<linearGradient id="paint2_linear_265_44" x1="81.5996" y1="77.4806" x2="89.2933" y2="113.319" gradientUnits="userSpaceOnUse">
<stop stop-color="#A5A5A5"/>
<stop offset="1" stop-color="#E8E5E5"/>
</linearGradient>
<linearGradient id="paint3_linear_265_44" x1="29" y1="21.5" x2="29.0357" y2="34.6013" gradientUnits="userSpaceOnUse">
<stop stop-color="#F5C23F"/>
<stop offset="1" stop-color="#D3A734"/>
</linearGradient>
<linearGradient id="paint4_linear_265_44" x1="92" y1="4" x2="91.5" y2="12.5" gradientUnits="userSpaceOnUse">
<stop stop-color="#3753B8"/>
<stop offset="1" stop-color="#192552"/>
</linearGradient>
</defs>
</svg>
