<svg width="423" height="155" viewBox="0 0 423 155" fill="none" xmlns="http://www.w3.org/2000/svg">
<path d="M6.58172 104.986C-5.71749 94.5742 0.21115 74.4224 16.1636 72.4171C23.5043 71.4943 30.6821 75.0759 34.3922 81.5127L62.4896 130.26C62.7246 130.668 62.9262 131.094 63.0925 131.535C66.2568 139.917 56.2636 147.046 49.4433 141.272L6.58172 104.986Z" fill="url(#paint0_linear_358_635)"/>
<path d="M47.744 52.0639C48.4658 26.0615 68.2524 4.00582 94.108 3.3206C104.874 3.03529 115.332 3.24927 126.475 4.1018C151.852 6.0433 169.814 28.9225 169.104 54.5088C169.072 55.6545 169.04 56.7985 169.009 57.9429C168.273 84.4442 147.76 106.688 121.41 107.42C110.958 107.71 100.843 107.601 90.117 106.886C64.7853 105.196 46.9036 82.3388 47.6121 56.8162L47.744 52.0639Z" fill="url(#paint1_linear_358_635)"/>
<path d="M62.1032 63.6807C62.5595 47.2418 75.2847 33.5741 91.6288 33.0738C103.217 32.7191 114.036 32.9286 126.191 33.9515C142.088 35.2894 153.598 49.4159 153.153 65.4541C152.695 81.9501 139.749 95.4874 123.348 95.9835C111.839 96.3316 101.204 96.2464 89.3239 95.3432C73.26 94.1218 61.6536 79.8762 62.1032 63.6807Z" fill="#212224"/>
<path d="M103.189 66.9429C103.028 65.8385 102.572 64.7902 101.824 63.9655C95.3934 56.8754 88.8439 55.1195 79.6557 61.8475C78.3755 62.7849 77.5584 64.2172 77.266 65.7824C76.2311 71.3216 82.0387 75.5531 87.556 74.5658C90.1398 74.1034 92.6958 74.0175 95.4564 74.2936C99.7845 74.7265 103.819 71.271 103.189 66.9429Z" fill="#F5C23F"/>
<path d="M109.04 68.0123C109.201 66.9078 109.657 65.8595 110.405 65.0348C116.835 57.9447 123.385 56.1888 132.573 62.9168C133.853 63.8542 134.67 65.2866 134.963 66.8518C135.998 72.3909 130.19 76.6225 124.673 75.6351C122.089 75.1728 119.533 75.0869 116.772 75.363C112.444 75.7959 108.409 72.3404 109.04 68.0123Z" fill="#F5C23F"/>
<path d="M61.6799 138.475C60.2764 128.167 67.4476 118.666 77.6971 117.255L135.599 109.281C145.849 107.869 155.295 115.081 156.699 125.389C158.102 135.698 150.931 145.198 140.682 146.61L82.7796 154.584C72.53 155.995 63.0834 148.783 61.6799 138.475Z" fill="url(#paint2_linear_358_635)"/>
<path d="M11.7844 39.9993C11.7844 37.0861 14.1326 34.7245 17.0293 34.7245C19.9259 34.7245 22.2741 37.0861 22.2741 39.9993V83.7052C22.2741 86.6185 19.9259 88.9801 17.0293 88.9801C14.1326 88.9801 11.7844 86.6185 11.7844 83.7052V39.9993Z" fill="#3753B8"/>
<path d="M23.7746 15.1319C22.2759 10.6106 35.7633 36.9849 28.2702 45.2739C20.777 53.563 12.1361 51.376 5.79227 45.2739C-0.490921 39.2302 25.2733 19.6532 23.7746 15.1319Z" fill="url(#paint3_linear_358_635)"/>
<path d="M196.093 107.431L204.05 76.0212H215.07L222.98 107.431H216.67L214.933 101.085H204.004L202.358 107.431H196.093ZM205.01 95.98H214.018L210.497 81.1719H208.577L205.01 95.98Z" fill="#D9D9D9"/>
<path d="M226.424 107.431V76.0212H238.633C241.132 76.0212 243.221 76.3431 244.897 76.987C246.604 77.6308 247.87 78.7038 248.693 80.2061C249.546 81.7084 249.973 83.7472 249.973 86.3225C249.973 88.5913 249.561 90.5075 248.738 92.0711C247.946 93.604 246.726 94.7384 245.08 95.4742L249.973 107.431H243.343L239.227 96.8998H232.734V107.431H226.424ZM232.734 91.7032H238.77C239.928 91.7032 240.858 91.4885 241.559 91.0593C242.26 90.5994 242.763 89.9709 243.068 89.1738C243.373 88.346 243.525 87.4109 243.525 86.3685C243.525 84.6516 243.129 83.364 242.337 82.5055C241.544 81.6471 240.309 81.2179 238.633 81.2179H232.734V91.7032Z" fill="#D9D9D9"/>
<path d="M260.637 107.431V81.4018H252.223V76.0212H275.086V81.4018H266.947V107.431H260.637Z" fill="#D9D9D9"/>
<path d="M278.536 107.431V76.0212H284.846V107.431H278.536Z" fill="#D9D9D9"/>
<path d="M300.743 107.937C299.584 107.937 298.319 107.86 296.948 107.707C295.576 107.584 294.234 107.431 292.924 107.247C291.643 107.033 290.546 106.849 289.631 106.695L290.043 101.683C290.988 101.805 292.085 101.943 293.335 102.096C294.585 102.219 295.82 102.326 297.039 102.418C298.289 102.51 299.371 102.556 300.286 102.556C302.023 102.556 303.288 102.219 304.081 101.545C304.873 100.839 305.27 99.7511 305.27 98.2794C305.27 97.4823 305.102 96.8538 304.767 96.3939C304.462 95.9034 303.898 95.5202 303.075 95.2442C302.252 94.9376 301.109 94.6464 299.645 94.3705C297.207 93.9106 295.225 93.3434 293.701 92.6689C292.207 91.9944 291.11 91.044 290.409 89.8176C289.738 88.5913 289.403 86.951 289.403 84.8969C289.403 82.5055 289.845 80.6353 290.729 79.2864C291.613 77.9067 292.878 76.9257 294.524 76.3431C296.17 75.7606 298.106 75.4694 300.331 75.4694C301.337 75.4694 302.48 75.5307 303.761 75.6533C305.072 75.7453 306.352 75.8679 307.602 76.0212C308.882 76.1745 309.964 76.3431 310.848 76.5271L310.574 81.5858C309.66 81.4631 308.593 81.3558 307.373 81.2639C306.184 81.1412 304.995 81.0339 303.807 80.9419C302.648 80.85 301.657 80.804 300.834 80.804C299.097 80.804 297.816 81.0799 296.993 81.6318C296.17 82.1836 295.759 83.0727 295.759 84.2991C295.759 85.2188 295.942 85.924 296.307 86.4145C296.673 86.9051 297.283 87.3036 298.136 87.6102C299.02 87.9168 300.225 88.2387 301.749 88.576C303.547 88.9745 305.072 89.4037 306.321 89.8636C307.602 90.3235 308.623 90.8754 309.385 91.5192C310.178 92.163 310.757 92.9908 311.123 94.0025C311.489 95.0143 311.671 96.2866 311.671 97.8196C311.671 100.272 311.229 102.25 310.345 103.752C309.492 105.224 308.242 106.297 306.596 106.971C304.98 107.615 303.029 107.937 300.743 107.937Z" fill="#D9D9D9"/>
<path d="M322.082 107.431V81.4018H313.668V76.0212H336.531V81.4018H328.392V107.431H322.082Z" fill="#D9D9D9"/>
<path d="M338.929 86.7824L340.529 75.5613H346.885L343.73 86.7824H338.929Z" fill="#D9D9D9"/>
<path d="M361.071 107.937C359.913 107.937 358.648 107.86 357.276 107.707C355.904 107.584 354.563 107.431 353.252 107.247C351.972 107.033 350.874 106.849 349.96 106.695L350.371 101.683C351.316 101.805 352.414 101.943 353.664 102.096C354.914 102.219 356.148 102.326 357.368 102.418C358.617 102.51 359.7 102.556 360.614 102.556C362.352 102.556 363.617 102.219 364.409 101.545C365.202 100.839 365.598 99.7511 365.598 98.2794C365.598 97.4823 365.431 96.8538 365.095 96.3939C364.79 95.9034 364.227 95.5202 363.403 95.2442C362.58 94.9376 361.437 94.6464 359.974 94.3705C357.535 93.9106 355.554 93.3434 354.03 92.6689C352.536 91.9944 351.438 91.044 350.737 89.8176C350.067 88.5913 349.731 86.951 349.731 84.8969C349.731 82.5055 350.173 80.6353 351.057 79.2864C351.941 77.9067 353.206 76.9257 354.853 76.3431C356.499 75.7606 358.435 75.4694 360.66 75.4694C361.666 75.4694 362.809 75.5307 364.089 75.6533C365.4 75.7453 366.68 75.8679 367.93 76.0212C369.211 76.1745 370.293 76.3431 371.177 76.5271L370.903 81.5858C369.988 81.4631 368.921 81.3558 367.702 81.2639C366.513 81.1412 365.324 81.0339 364.135 80.9419C362.977 80.85 361.986 80.804 361.163 80.804C359.425 80.804 358.145 81.0799 357.322 81.6318C356.499 82.1836 356.087 83.0727 356.087 84.2991C356.087 85.2188 356.27 85.924 356.636 86.4145C357.002 86.9051 357.611 87.3036 358.465 87.6102C359.349 87.9168 360.553 88.2387 362.077 88.576C363.876 88.9745 365.4 89.4037 366.65 89.8636C367.93 90.3235 368.952 90.8754 369.714 91.5192C370.506 92.163 371.085 92.9908 371.451 94.0025C371.817 95.0143 372 96.2866 372 97.8196C372 100.272 371.558 102.25 370.674 103.752C369.82 105.224 368.57 106.297 366.924 106.971C365.309 107.615 363.358 107.937 361.071 107.937Z" fill="#D9D9D9"/>
<path d="M385.859 108.397L393.816 76.987H404.836L412.746 108.397H406.436L404.699 102.05H393.77L392.124 108.397H385.859ZM394.776 96.9458H403.784L400.263 82.1376H398.343L394.776 96.9458Z" fill="#3753B8"/>
<path d="M416.19 108.397V76.987H422.5V108.397H416.19Z" fill="#3753B8"/>
<path d="M85.2094 4.33106C85.2639 2.49141 86.6853 0.982232 88.5096 0.837529C106.172 -0.563414 117.335 -0.271782 134.569 2.20578C136.371 2.46495 137.689 4.05106 137.635 5.88172C137.577 7.84028 135.973 9.39753 134.025 9.39183C114.624 9.33499 103.584 8.99042 88.5796 8.05163C86.6422 7.93042 85.1516 6.28244 85.2094 4.33106Z" fill="url(#paint4_linear_358_635)"/>
<defs>
<linearGradient id="paint0_linear_358_635" x1="1.05098e-05" y1="12.6577" x2="-4.74578" y2="123.871" gradientUnits="userSpaceOnUse">
<stop stop-color="#D9D9D9"/>
<stop offset="1" stop-color="#737373"/>
</linearGradient>
<linearGradient id="paint1_linear_358_635" x1="208.943" y1="77.9949" x2="208.084" y2="166.408" gradientUnits="userSpaceOnUse">
<stop stop-color="#D9D9D9"/>
<stop offset="1" stop-color="#737373"/>
</linearGradient>
<linearGradient id="paint2_linear_358_635" x1="165.039" y1="-18.4238" x2="209.939" y2="204.618" gradientUnits="userSpaceOnUse">
<stop stop-color="#A5A5A5"/>
<stop offset="1" stop-color="#E8E5E5"/>
</linearGradient>
<linearGradient id="paint3_linear_358_635" x1="212.94" y1="70.0831" x2="213.001" y2="154.761" gradientUnits="userSpaceOnUse">
<stop stop-color="#F5C23F"/>
<stop offset="1" stop-color="#D3A734"/>
</linearGradient>
<linearGradient id="paint4_linear_358_635" x1="112.188" y1="4.58245" x2="111.431" y2="17.3923" gradientUnits="userSpaceOnUse">
<stop stop-color="#3753B8"/>
<stop offset="1" stop-color="#192552"/>
</linearGradient>
</defs>
</svg>
