<svg width="200" height="77" viewBox="0 0 200 77" fill="none" xmlns="http://www.w3.org/2000/svg">
<path d="M80.581 54L84.757 37.608H90.541L94.693 54H91.381L90.469 50.688H84.733L83.869 54H80.581ZM85.261 48.024H89.989L88.141 40.296H87.133L85.261 48.024ZM96.5003 54V37.608H102.908C104.22 37.608 105.316 37.776 106.196 38.112C107.092 38.448 107.756 39.008 108.188 39.792C108.636 40.576 108.86 41.64 108.86 42.984C108.86 44.168 108.644 45.168 108.212 45.984C107.796 46.784 107.156 47.376 106.292 47.76L108.86 54H105.38L103.22 48.504H99.8123V54H96.5003ZM99.8123 45.792H102.98C103.588 45.792 104.076 45.68 104.444 45.456C104.812 45.216 105.076 44.888 105.236 44.472C105.396 44.04 105.476 43.552 105.476 43.008C105.476 42.112 105.268 41.44 104.852 40.992C104.436 40.544 103.788 40.32 102.908 40.32H99.8123V45.792ZM114.34 54V40.416H109.924V37.608H121.924V40.416H117.652V54H114.34ZM123.735 54V37.608H127.047V54H123.735ZM135.39 54.264C134.782 54.264 134.118 54.224 133.398 54.144C132.678 54.08 131.974 54 131.286 53.904C130.614 53.792 130.038 53.696 129.558 53.616L129.774 51C130.27 51.064 130.846 51.136 131.502 51.216C132.158 51.28 132.806 51.336 133.446 51.384C134.102 51.432 134.67 51.456 135.15 51.456C135.758 51.456 136.254 51.376 136.638 51.216C137.022 51.056 137.302 50.816 137.478 50.496C137.67 50.16 137.766 49.736 137.766 49.224C137.766 48.808 137.678 48.48 137.502 48.24C137.342 47.984 137.046 47.784 136.614 47.64C136.182 47.48 135.582 47.328 134.814 47.184C133.854 47.008 133.03 46.8 132.342 46.56C131.67 46.32 131.118 46.024 130.686 45.672C130.254 45.304 129.934 44.84 129.726 44.28C129.534 43.72 129.438 43.04 129.438 42.24C129.438 40.992 129.67 40.016 130.134 39.312C130.598 38.592 131.262 38.08 132.126 37.776C132.99 37.472 134.006 37.32 135.174 37.32C135.702 37.32 136.302 37.352 136.974 37.416C137.662 37.464 138.334 37.528 138.99 37.608C139.662 37.688 140.23 37.776 140.694 37.872L140.55 40.512C140.07 40.448 139.51 40.392 138.87 40.344C138.246 40.28 137.622 40.224 136.998 40.176C136.39 40.128 135.87 40.104 135.438 40.104C134.846 40.104 134.35 40.168 133.95 40.296C133.55 40.424 133.254 40.624 133.062 40.896C132.87 41.168 132.774 41.512 132.774 41.928C132.774 42.408 132.87 42.776 133.062 43.032C133.254 43.288 133.574 43.496 134.022 43.656C134.486 43.816 135.118 43.984 135.918 44.16C136.862 44.368 137.662 44.592 138.318 44.832C138.99 45.072 139.526 45.36 139.926 45.696C140.342 46.032 140.646 46.464 140.838 46.992C141.03 47.52 141.126 48.184 141.126 48.984C141.126 50.264 140.894 51.296 140.43 52.08C139.982 52.848 139.326 53.408 138.462 53.76C137.614 54.096 136.59 54.264 135.39 54.264ZM146.45 54V40.416H142.034V37.608H154.034V40.416H149.762V54H146.45ZM155.292 43.224L156.132 37.368H159.468L157.812 43.224H155.292ZM166.914 54.264C166.306 54.264 165.642 54.224 164.922 54.144C164.202 54.08 163.498 54 162.81 53.904C162.138 53.792 161.562 53.696 161.082 53.616L161.298 51C161.794 51.064 162.37 51.136 163.026 51.216C163.682 51.28 164.33 51.336 164.97 51.384C165.626 51.432 166.194 51.456 166.674 51.456C167.282 51.456 167.778 51.376 168.162 51.216C168.546 51.056 168.826 50.816 169.002 50.496C169.194 50.16 169.29 49.736 169.29 49.224C169.29 48.808 169.202 48.48 169.026 48.24C168.866 47.984 168.57 47.784 168.138 47.64C167.706 47.48 167.106 47.328 166.338 47.184C165.378 47.008 164.554 46.8 163.866 46.56C163.194 46.32 162.642 46.024 162.21 45.672C161.778 45.304 161.458 44.84 161.25 44.28C161.058 43.72 160.962 43.04 160.962 42.24C160.962 40.992 161.194 40.016 161.658 39.312C162.122 38.592 162.786 38.08 163.65 37.776C164.514 37.472 165.53 37.32 166.698 37.32C167.226 37.32 167.826 37.352 168.498 37.416C169.186 37.464 169.858 37.528 170.514 37.608C171.186 37.688 171.754 37.776 172.218 37.872L172.074 40.512C171.594 40.448 171.034 40.392 170.394 40.344C169.77 40.28 169.146 40.224 168.522 40.176C167.914 40.128 167.394 40.104 166.962 40.104C166.37 40.104 165.874 40.168 165.474 40.296C165.074 40.424 164.778 40.624 164.586 40.896C164.394 41.168 164.298 41.512 164.298 41.928C164.298 42.408 164.394 42.776 164.586 43.032C164.778 43.288 165.098 43.496 165.546 43.656C166.01 43.816 166.642 43.984 167.442 44.16C168.386 44.368 169.186 44.592 169.842 44.832C170.514 45.072 171.05 45.36 171.45 45.696C171.866 46.032 172.17 46.464 172.362 46.992C172.554 47.52 172.65 48.184 172.65 48.984C172.65 50.264 172.418 51.296 171.954 52.08C171.506 52.848 170.85 53.408 169.986 53.76C169.138 54.096 168.114 54.264 166.914 54.264Z" fill="white"/>
<path d="M178.948 54L183.124 37.608H188.908L193.06 54H189.748L188.836 50.688H183.1L182.236 54H178.948ZM183.628 48.024H188.356L186.508 40.296H185.5L183.628 48.024ZM194.867 54V37.608H198.179V54H194.867Z" fill="#3753B8"/>
<path d="M28.7226 56.3375L18.2412 50.0704L40.7201 -4.79228e-05L65.6832 19.4082L28.7226 56.3375Z" fill="white"/>
<path d="M33.6534 60.1179L34.2225 33.5865L13.1086 42.502C12.7821 54.9808 10.9453 61.1459 2.99943 69.7657L33.6534 60.1179Z" fill="#CFA334"/>
<path d="M0.605914 71.613L4.61297 72.3941L5.39409 68.387L1.38703 67.6059L0.605914 71.613ZM14.3333 59C14.3333 60.4728 15.5272 61.6667 17 61.6667C18.4728 61.6667 19.6667 60.4728 19.6667 59C19.6667 57.5272 18.4728 56.3333 17 56.3333C15.5272 56.3333 14.3333 57.5272 14.3333 59ZM3 70C3.27938 70.4147 3.27943 70.4146 3.27953 70.4146C3.2796 70.4145 3.27973 70.4144 3.27989 70.4143C3.28019 70.4141 3.28064 70.4138 3.28122 70.4134C3.28238 70.4126 3.28409 70.4115 3.28634 70.41C3.29085 70.4069 3.29751 70.4024 3.30628 70.3965C3.32383 70.3846 3.34981 70.367 3.38385 70.3439C3.45191 70.2977 3.55214 70.2294 3.68134 70.1408C3.93972 69.9636 4.31398 69.7053 4.7784 69.3801C5.70712 68.7299 6.997 67.8117 8.44218 66.7397C11.3271 64.5998 14.851 61.8324 17.3519 59.3552L16.6481 58.6448C14.2004 61.0693 10.7243 63.8019 7.84643 65.9366C6.41017 67.0019 5.1279 67.9147 4.20483 68.561C3.74335 68.8841 3.3718 69.1405 3.11585 69.316C2.98788 69.4038 2.88882 69.4713 2.82187 69.5167C2.7884 69.5395 2.76296 69.5567 2.74595 69.5682C2.73745 69.574 2.73105 69.5783 2.72681 69.5812C2.72469 69.5826 2.72312 69.5837 2.72208 69.5843C2.72156 69.5847 2.72118 69.585 2.72094 69.5851C2.72082 69.5852 2.72074 69.5853 2.72068 69.5853C2.72064 69.5853 2.72062 69.5853 3 70Z" fill="white"/>
</svg>
